HIERARCHY
ROOT hips
{
	OFFSET -0.003675 0.299928 -0.021708
	CHANNELS 6 Xposition Yposition Zposition Xrotation Yrotation Zrotation
	JOINT LowerBack
	{
		OFFSET 0.000919 0.177588 0.009275
		CHANNELS 3 Xrotation Yrotation Zrotation
		JOINT spine
		{
			OFFSET 0.000919 0.177588 0.009275
			CHANNELS 3 Xrotation Yrotation Zrotation
			JOINT chest
			{
				OFFSET 0.000456 0.100015 0.004638
				CHANNELS 3 Xrotation Yrotation Zrotation
				JOINT neck
				{
					OFFSET 0.000456 0.100015 0.004638
					CHANNELS 3 Xrotation Yrotation Zrotation
					JOINT head
					{
						OFFSET 0.000924 0.155147 0.009274
						CHANNELS 6 Xposition Yposition Zposition Xrotation Yrotation Zrotation
						End Site
						{
							OFFSET 0.000000 0.153400 0.000000
						}
					}
				}
				JOINT shoulder.L
				{
					OFFSET 0.019937 0.078966 0.057518
					CHANNELS 6 Xposition Yposition Zposition Yrotation Xrotation Zrotation
					JOINT upper_arm.L
					{
						OFFSET 0.177024 -0.020465 -0.095062
						CHANNELS 6 Xposition Yposition Zposition Xrotation Yrotation Zrotation
						JOINT forearm.L
						{
							OFFSET 0.247100 -0.135500 -0.061800
							CHANNELS 3 Xrotation Yrotation Zrotation
							JOINT hand.L
							{
								OFFSET 0.217000 -0.143000 0.039300
								CHANNELS 3 Xrotation Yrotation Zrotation
								JOINT palm.01.L
								{
									OFFSET 0.021770 -0.038291 0.012954
									CHANNELS 6 Xposition Yposition Zposition Yrotation Xrotation Zrotation
									JOINT f_index.01.L
									{
										OFFSET 0.053215 -0.044137 0.008236
										CHANNELS 3 Xrotation Yrotation Zrotation
										JOINT f_index.02.L
										{
											OFFSET 0.036108 -0.024723 -0.010656
											CHANNELS 3 Xrotation Yrotation Zrotation
											JOINT f_index.03.L
											{
												OFFSET 0.021342 -0.014948 -0.010846
												CHANNELS 3 Xrotation Yrotation Zrotation
												End Site
												{
													OFFSET 0.015600 -0.009860 -0.013421
												}
											}
										}
									}
									JOINT thumb.01.L
									{
										OFFSET -0.009090 -0.002348 -0.024223
										CHANNELS 6 Xposition Yposition Zposition Xrotation Yrotation Zrotation
										JOINT thumb.02.L
										{
											OFFSET 0.019713 -0.035076 -0.011120
											CHANNELS 3 Xrotation Yrotation Zrotation
											JOINT thumb.03.L
											{
												OFFSET 0.024877 -0.021748 -0.005176
												CHANNELS 3 Xrotation Yrotation Zrotation
												End Site
												{
													OFFSET 0.016125 -0.013029 -0.001569
												}
											}
										}
									}
								}
								JOINT palm.02.L
								{
									OFFSET 0.032823 -0.025104 0.012281
									CHANNELS 6 Xposition Yposition Zposition Yrotation Xrotation Zrotation
									JOINT f_middle.01.L
									{
										OFFSET 0.055723 -0.038469 0.008037
										CHANNELS 3 Xrotation Yrotation Zrotation
										JOINT f_middle.02.L
										{
											OFFSET 0.038167 -0.027473 -0.015582
											CHANNELS 3 Xrotation Yrotation Zrotation
											JOINT f_middle.03.L
											{
												OFFSET 0.021707 -0.016587 -0.017037
												CHANNELS 3 Xrotation Yrotation Zrotation
												End Site
												{
													OFFSET 0.014112 -0.010584 -0.014294
												}
											}
										}
									}
								}
								JOINT palm.03.L
								{
									OFFSET 0.039230 -0.011402 0.008390
									CHANNELS 6 Xposition Yposition Zposition Yrotation Xrotation Zrotation
									JOINT f_ring.01.L
									{
										OFFSET 0.061796 -0.031470 0.007910
										CHANNELS 3 Xrotation Yrotation Zrotation
										JOINT f_ring.02.L
										{
											OFFSET 0.033092 -0.023401 -0.019127
											CHANNELS 3 Xrotation Yrotation Zrotation
											JOINT f_ring.03.L
											{
												OFFSET 0.021392 -0.015362 -0.017824
												CHANNELS 3 Xrotation Yrotation Zrotation
												End Site
												{
													OFFSET 0.008670 -0.007297 -0.014686
												}
											}
										}
									}
								}
								JOINT palm.04.L
								{
									OFFSET 0.043417 0.002450 0.002889
									CHANNELS 6 Xposition Yposition Zposition Yrotation Xrotation Zrotation
									JOINT f_pinky.01.L
									{
										OFFSET 0.069986 -0.026156 0.003627
										CHANNELS 3 Xrotation Yrotation Zrotation
										JOINT f_pinky.02.L
										{
											OFFSET 0.018520 -0.012813 -0.016429
											CHANNELS 3 Xrotation Yrotation Zrotation
											JOINT f_pinky.03.L
											{
												OFFSET 0.013822 -0.009796 -0.014947
												CHANNELS 3 Xrotation Yrotation Zrotation
												End Site
												{
													OFFSET 0.007238 -0.006103 -0.011657
												}
											}
										}
									}
								}
							}
						}
					}
				}
				JOINT shoulder.R
				{
					OFFSET -0.016662 0.078957 0.057696
					CHANNELS 6 Xposition Yposition Zposition Yrotation Xrotation Zrotation
					JOINT upper_arm.R
					{
						OFFSET -0.176972 -0.020537 -0.095144
						CHANNELS 6 Xposition Yposition Zposition Xrotation Yrotation Zrotation
						JOINT forearm.R
						{
							OFFSET -0.247100 -0.135500 -0.061800
							CHANNELS 3 Xrotation Yrotation Zrotation
							JOINT hand.R
							{
								OFFSET -0.217000 -0.143000 0.039300
								CHANNELS 3 Xrotation Yrotation Zrotation
								JOINT palm.01.R
								{
									OFFSET -0.021773 -0.038278 0.012988
									CHANNELS 6 Xposition Yposition Zposition Yrotation Xrotation Zrotation
									JOINT f_index.01.R
									{
										OFFSET -0.053212 -0.044139 0.008249
										CHANNELS 3 Xrotation Yrotation Zrotation
										JOINT f_index.02.R
										{
											OFFSET -0.036049 -0.024835 -0.010634
											CHANNELS 3 Xrotation Yrotation Zrotation
											JOINT f_index.03.R
											{
												OFFSET -0.021371 -0.014881 -0.010866
												CHANNELS 3 Xrotation Yrotation Zrotation
												End Site
												{
													OFFSET -0.015584 -0.009883 -0.013422
												}
											}
										}
									}
									JOINT thumb.01.R
									{
										OFFSET 0.009113 -0.002381 -0.024211
										CHANNELS 6 Xposition Yposition Zposition Xrotation Yrotation Zrotation
										JOINT thumb.02.R
										{
											OFFSET -0.019694 -0.035097 -0.011088
											CHANNELS 3 Xrotation Yrotation Zrotation
											JOINT thumb.03.R
											{
												OFFSET -0.024867 -0.021762 -0.005168
												CHANNELS 3 Xrotation Yrotation Zrotation
												End Site
												{
													OFFSET -0.016120 -0.013036 -0.001565
												}
											}
										}
									}
								}
								JOINT palm.02.R
								{
									OFFSET -0.032828 -0.025095 0.012286
									CHANNELS 6 Xposition Yposition Zposition Yrotation Xrotation Zrotation
									JOINT f_middle.01.R
									{
										OFFSET -0.055721 -0.038472 0.008040
										CHANNELS 3 Xrotation Yrotation Zrotation
										JOINT f_middle.02.R
										{
											OFFSET -0.038101 -0.027593 -0.015557
											CHANNELS 3 Xrotation Yrotation Zrotation
											JOINT f_middle.03.R
											{
												OFFSET -0.021730 -0.016530 -0.017054
												CHANNELS 3 Xrotation Yrotation Zrotation
												End Site
												{
													OFFSET -0.014096 -0.010608 -0.014293
												}
											}
										}
									}
								}
								JOINT palm.03.R
								{
									OFFSET -0.039192 -0.011488 0.008390
									CHANNELS 6 Xposition Yposition Zposition Yrotation Xrotation Zrotation
									JOINT f_ring.01.R
									{
										OFFSET -0.061839 -0.031387 0.007876
										CHANNELS 3 Xrotation Yrotation Zrotation
										JOINT f_ring.02.R
										{
											OFFSET -0.033068 -0.023437 -0.019125
											CHANNELS 3 Xrotation Yrotation Zrotation
											JOINT f_ring.03.R
											{
												OFFSET -0.021371 -0.015393 -0.017822
												CHANNELS 3 Xrotation Yrotation Zrotation
												End Site
												{
													OFFSET -0.008654 -0.007321 -0.014684
												}
											}
										}
									}
								}
								JOINT palm.04.R
								{
									OFFSET -0.043421 0.002443 0.002845
									CHANNELS 6 Xposition Yposition Zposition Yrotation Xrotation Zrotation
									JOINT f_pinky.01.R
									{
										OFFSET -0.069983 -0.026169 0.003599
										CHANNELS 3 Xrotation Yrotation Zrotation
										JOINT f_pinky.02.R
										{
											OFFSET -0.018501 -0.012842 -0.016428
											CHANNELS 3 Xrotation Yrotation Zrotation
											JOINT f_pinky.03.R
											{
												OFFSET -0.013806 -0.009821 -0.014946
												CHANNELS 3 Xrotation Yrotation Zrotation
												End Site
												{
													OFFSET -0.007226 -0.006121 -0.011655
												}
											}
										}
									}
								}
							}
						}
					}
				}
			}
		}
	}
	JOINT pelvis.L
	{
		OFFSET 0.000000 0.000000 0.000000
		CHANNELS 6 Xposition Yposition Zposition Xrotation Yrotation Zrotation
		JOINT thigh.L
		{
			OFFSET 0.101675 0.001054 -0.000000
			CHANNELS 3 Xrotation Yrotation Zrotation
			JOINT shin.L
			{
				OFFSET 0.000000 -0.534800 0.041000
				CHANNELS 3 Xrotation Yrotation Zrotation
				JOINT foot.L
				{
					OFFSET 0.000000 -0.452000 -0.044800
					CHANNELS 3 Xrotation Yrotation Zrotation
					JOINT toe.L
					{
						OFFSET -0.000000 -0.068500 0.109600
						CHANNELS 3 Xrotation Yrotation Zrotation
						End Site
						{
							OFFSET -0.000000 0.000000 0.067200
						}
					}
				}
				JOINT heel.L
				{
					OFFSET 0.000000 -0.452000 -0.044800
					CHANNELS 3 Xrotation Yrotation Zrotation
					JOINT heel.02.L
					{
						OFFSET -0.038000 -0.085200 0.016200
						CHANNELS 6 Xposition Yposition Zposition Xrotation Yrotation Zrotation
						End Site
						{
							OFFSET 0.080000 -0.000000 0.000000
						}
					}
				}
			}
		}
	}
	JOINT pelvis.R
	{
		OFFSET 0.000000 0.000000 0.000000
		CHANNELS 6 Xposition Yposition Zposition Xrotation Yrotation Zrotation
		JOINT thigh.R
		{
			OFFSET -0.094325 0.001054 0.000000
			CHANNELS 3 Xrotation Yrotation Zrotation
			JOINT shin.R
			{
				OFFSET 0.000000 -0.534800 0.041000
				CHANNELS 3 Xrotation Yrotation Zrotation
				JOINT foot.R
				{
					OFFSET 0.000000 -0.452000 -0.044800
					CHANNELS 3 Xrotation Yrotation Zrotation
					JOINT toe.R
					{
						OFFSET -0.000000 -0.068500 0.109600
						CHANNELS 3 Xrotation Yrotation Zrotation
						End Site
						{
							OFFSET -0.000000 0.000000 0.067200
						}
					}
				}
				JOINT heel.R
				{
					OFFSET 0.000000 -0.452000 -0.044800
					CHANNELS 3 Xrotation Yrotation Zrotation
					JOINT heel.02.R
					{
						OFFSET 0.038000 -0.085200 0.016200
						CHANNELS 6 Xposition Yposition Zposition Xrotation Yrotation Zrotation
						End Site
						{
							OFFSET -0.080000 0.000000 -0.000000
						}
					}
				}
			}
		}
	}
}
MOTION
Frames: 4
Frame Time: 0.041667
-0.004383 0.292378 -0.012405 34.814403 -456.316660 21.684954 -0.000000 0.000000 -0.000001 -0.000000 -0.000000 -0.000000 -0.000001 -0.000000 -0.000000 -0.000000 0.000000 0.000000 0.000924 0.155148 0.009274 21.854988 -0.024807 11.937893 0.019937 0.078966 0.057518 -10.027874 4.012682 29.934335 0.177024 -0.020465 -0.095062 -32.528643 16.304189 -66.790193 -48.010131 -9.677833 -53.136481 0.000003 0.000001 -0.000004 0.021770 -0.038291 0.012954 0.000002 -0.000003 0.000001 0.000001 -0.000002 0.000001 0.000002 0.000001 0.000007 -0.000002 -0.000003 0.000003 -0.009090 -0.002348 -0.024223 0.000005 -0.000001 -0.000003 -0.000001 -0.000004 -0.000004 0.000002 0.000003 -0.000002 0.032823 -0.025104 0.012281 0.000003 -0.000004 0.000007 -0.000004 0.000000 -0.000007 -0.000007 0.000005 -0.000003 -0.000001 0.000003 0.000003 0.039230 -0.011402 0.008390 0.000003 -0.000003 0.000008 0.000004 -0.000001 -0.000004 -0.000002 0.000007 -0.000002 -0.000006 -0.000003 0.000004 0.043417 0.002450 0.002889 0.000004 -0.000002 0.000002 0.000001 -0.000003 0.000001 0.000005 0.000001 -0.000001 -0.000001 -0.000001 -0.000001 -0.016662 0.078957 0.057696 -5.169464 4.846532 -27.300423 -0.176972 -0.020537 -0.095144 -30.369511 -12.144812 59.796872 -39.099042 6.256088 59.332760 -0.000003 0.000001 -0.000002 -0.021773 -0.038278 0.012988 -0.000000 -0.000001 0.000000 -0.000001 0.000003 0.000001 -0.000004 0.000003 -0.000004 0.000000 0.000000 0.000003 0.009114 -0.002381 -0.024212 -0.000001 0.000001 0.000003 -0.000002 -0.000004 -0.000005 0.000002 -0.000000 -0.000003 -0.032828 -0.025095 0.012286 0.000003 -0.000000 -0.000004 -0.000001 0.000004 -0.000001 -0.000003 0.000003 -0.000000 -0.000003 0.000006 -0.000005 -0.039192 -0.011488 0.008390 0.000001 0.000002 -0.000000 -0.000000 0.000003 -0.000005 -0.000003 0.000001 -0.000002 -0.000004 0.000002 0.000002 -0.043421 0.002443 0.002845 0.000001 0.000000 -0.000001 -0.000004 0.000005 -0.000001 0.000000 -0.000003 0.000002 0.000001 0.000003 -0.000001 -0.000000 0.000000 -0.000000 -1.350722 0.183259 -3.447339 -31.556878 0.087947 2.958905 41.807820 0.797890 -8.075266 0.000000 -0.000002 0.000001 -0.000003 0.000001 0.000003 -0.000002 0.000000 0.000002 -0.038000 -0.085200 0.016200 -0.000001 0.000000 0.000002 -0.000000 0.000000 -0.000000 -1.316428 0.181551 -2.213276 26.282930 -0.012700 1.234367 30.936003 0.272185 -2.746517 -0.000005 -0.000000 0.000000 -0.000003 0.000001 -0.000001 0.000002 0.000001 0.000001 0.038000 -0.085200 0.016200 -0.000001 0.000003 0.000001 
-0.004381 0.292069 -0.012440 35.144878 -456.337342 22.002133 -0.000001 -0.000001 0.000001 -0.000000 -0.000000 0.000001 -0.000001 -0.000000 -0.000001 0.000000 -0.000000 -0.000002 0.000924 0.155148 0.009274 21.985173 -0.024926 11.977147 0.019937 0.078966 0.057518 -9.916748 3.981717 29.902438 0.177024 -0.020465 -0.095062 -32.314410 16.261195 -66.812528 -48.164240 -9.372561 -53.552802 0.000001 0.000000 0.000005 0.021770 -0.038291 0.012954 0.000002 0.000003 0.000005 0.000001 -0.000002 0.000005 0.000003 0.000001 0.000007 0.000003 0.000003 -0.000003 -0.009090 -0.002348 -0.024223 0.000001 -0.000002 -0.000001 -0.000003 0.000004 -0.000002 -0.000001 0.000001 -0.000002 0.032823 -0.025104 0.012281 0.000000 0.000009 0.000005 0.000000 0.000006 -0.000003 -0.000007 0.000006 0.000000 -0.000003 -0.000001 -0.000001 0.039230 -0.011402 0.008390 0.000001 0.000002 0.000006 0.000001 -0.000004 -0.000000 0.000001 0.000003 0.000003 0.000003 -0.000003 0.000005 0.043417 0.002450 0.002889 0.000000 0.000003 -0.000000 -0.000002 -0.000006 0.000003 0.000002 -0.000000 -0.000001 -0.000008 -0.000001 -0.000001 -0.016662 0.078956 0.057696 -5.171881 4.823068 -27.301904 -0.176972 -0.020537 -0.095144 -30.184508 -12.126343 59.777385 -38.986839 6.112362 59.650180 -0.000001 0.000000 0.000002 -0.021773 -0.038278 0.012988 -0.000003 0.000001 -0.000002 -0.000001 0.000004 -0.000004 -0.000001 -0.000001 -0.000008 0.000001 0.000003 0.000002 0.009114 -0.002381 -0.024211 0.000001 -0.000003 -0.000001 -0.000000 -0.000001 0.000005 0.000001 0.000000 -0.000001 -0.032828 -0.025095 0.012286 0.000000 -0.000000 -0.000001 -0.000001 0.000005 -0.000001 0.000000 0.000001 0.000001 -0.000006 0.000005 -0.000006 -0.039192 -0.011488 0.008390 -0.000001 0.000001 -0.000002 -0.000000 0.000003 -0.000003 -0.000001 0.000002 -0.000000 0.000003 -0.000004 0.000000 -0.043421 0.002443 0.002845 -0.000001 0.000000 -0.000003 -0.000004 0.000002 -0.000002 -0.000002 -0.000003 0.000003 0.000003 -0.000000 0.000002 0.000000 0.000000 -0.000000 -1.355264 0.183279 -3.444641 -31.616027 0.088389 2.971281 42.153909 0.792011 -8.015358 0.000002 0.000000 -0.000001 -0.000002 -0.000000 0.000000 -0.000002 0.000000 -0.000001 -0.038000 -0.085200 0.016200 0.000001 0.000001 -0.000003 0.000000 0.000000 0.000000 -1.320865 0.181565 -2.210577 26.254791 -0.007951 1.296930 30.564222 0.274801 -2.772976 0.000000 0.000001 0.000001 -0.000000 0.000001 0.000001 0.000002 0.000000 0.000001 0.038000 -0.085200 0.016200 0.000003 0.000001 0.000000 
-0.006309 0.289833 -0.016167 -28.422960 -451.015095 -33.609356 -0.000000 -0.000000 0.000001 -0.000000 0.000000 0.000000 -0.000000 -0.000000 -0.000001 -0.000000 -0.000000 -0.000001 0.000924 0.155148 0.009274 18.862921 -0.018012 3.285831 0.019937 0.078966 0.057518 7.403198 5.615236 28.899275 0.177025 -0.020465 -0.095062 -18.181303 10.654133 -59.892447 -49.249479 2.747370 -70.009097 -0.000001 -0.000002 -0.000000 0.021770 -0.038291 0.012954 0.000000 0.000003 -0.000002 -0.000001 -0.000001 0.000003 -0.000001 -0.000001 0.000003 -0.000000 0.000001 -0.000002 -0.009090 -0.002348 -0.024223 -0.000002 0.000003 0.000005 -0.000002 -0.000003 0.000001 0.000000 0.000000 -0.000001 0.032823 -0.025104 0.012281 0.000000 0.000003 0.000005 -0.000007 0.000001 -0.000005 -0.000001 -0.000002 -0.000000 -0.000003 -0.000001 0.000001 0.039230 -0.011402 0.008390 -0.000001 0.000002 0.000003 0.000001 0.000003 0.000003 0.000002 0.000001 0.000001 -0.000003 -0.000000 0.000003 0.043417 0.002450 0.002889 0.000002 0.000003 -0.000004 0.000003 -0.000003 -0.000000 -0.000004 0.000004 -0.000001 -0.000004 -0.000001 -0.000001 -0.016662 0.078957 0.057696 7.465960 4.326835 -29.924292 -0.176972 -0.020537 -0.095144 -25.097327 -12.288029 58.944464 -40.736553 -0.392697 71.335548 0.000001 0.000001 0.000002 -0.021773 -0.038278 0.012988 0.000003 -0.000000 0.000002 -0.000001 0.000001 -0.000001 0.000002 0.000003 -0.000002 -0.000000 0.000006 0.000006 0.009114 -0.002381 -0.024212 0.000000 -0.000002 0.000004 -0.000000 -0.000008 0.000007 0.000002 -0.000006 -0.000001 -0.032828 -0.025095 0.012286 0.000005 0.000000 -0.000003 -0.000003 0.000007 -0.000001 0.000005 -0.000003 -0.000001 0.000001 0.000003 -0.000002 -0.039192 -0.011488 0.008390 0.000001 0.000001 -0.000000 -0.000001 0.000005 -0.000005 0.000003 -0.000003 0.000003 0.000002 0.000000 -0.000004 -0.043421 0.002443 0.002845 0.000003 0.000003 -0.000001 0.000002 0.000004 -0.000001 -0.000002 -0.000003 0.000002 -0.000000 -0.000002 -0.000000 -0.000000 0.000000 -0.000000 -1.341320 0.124632 -2.680899 -35.702492 -0.410427 -3.337653 46.019622 0.571789 -5.776771 0.000005 -0.000000 -0.000000 -0.000003 -0.000001 -0.000000 0.000003 -0.000000 -0.000001 -0.038000 -0.085200 0.016200 -0.000001 -0.000000 -0.000002 -0.000000 0.000000 -0.000000 -1.308941 0.123454 -1.446797 31.790183 0.205340 4.443522 17.200769 0.219632 -2.215981 0.000002 -0.000000 -0.000000 0.000002 0.000000 0.000000 0.000007 -0.000000 -0.000000 0.038000 -0.085200 0.016200 0.000002 -0.000000 -0.000000 
-0.004549 0.288308 -0.010799 3.190206 -505.211170 -9.475363 -0.000001 0.000003 0.000000 0.000000 0.000004 -0.000000 0.000000 0.000005 0.000000 -0.000001 0.000007 -0.000000 0.000924 0.155147 0.009274 3.666603 -0.005472 -8.975258 0.019937 0.078966 0.057518 13.769982 6.074880 28.561840 0.177024 -0.020465 -0.095062 -24.665942 14.730635 -70.507729 -63.990813 0.810254 -59.801673 -0.000004 0.000001 0.000003 0.021770 -0.038291 0.012954 0.000001 0.000004 0.000001 0.000003 0.000000 -0.000002 -0.000001 -0.000002 0.000010 0.000004 0.000002 0.000002 -0.009090 -0.002348 -0.024224 0.000001 -0.000001 -0.000006 -0.000002 0.000003 0.000003 0.000001 0.000004 0.000001 0.032823 -0.025104 0.012281 -0.000002 0.000003 0.000004 -0.000001 0.000000 -0.000007 -0.000003 -0.000001 0.000003 0.000002 0.000004 -0.000000 0.039230 -0.011402 0.008390 0.000002 0.000001 0.000009 0.000000 -0.000003 -0.000000 0.000003 0.000001 0.000003 0.000003 -0.000004 0.000003 0.043417 0.002450 0.002889 -0.000001 0.000001 -0.000000 0.000001 -0.000006 0.000002 -0.000002 0.000003 0.000001 0.000003 -0.000003 -0.000001 -0.016662 0.078957 0.057696 21.699562 3.912480 -31.761435 -0.176972 -0.020537 -0.095144 -37.944955 -19.997658 67.247140 -29.372593 25.333639 16.157649 -0.000001 -0.000001 -0.000003 -0.021773 -0.038278 0.012988 -0.000001 0.000000 -0.000003 0.000002 0.000003 0.000004 -0.000001 -0.000000 -0.000001 -0.000002 -0.000001 0.000006 0.009113 -0.002381 -0.024212 -0.000000 -0.000000 0.000004 -0.000000 0.000001 0.000000 0.000001 0.000000 -0.000008 -0.032828 -0.025095 0.012286 0.000001 -0.000000 -0.000004 0.000001 0.000001 0.000002 -0.000000 0.000003 -0.000000 -0.000000 0.000008 -0.000005 -0.039192 -0.011488 0.008390 -0.000001 0.000002 -0.000002 0.000001 0.000006 -0.000003 0.000001 -0.000001 0.000008 -0.000005 -0.000001 -0.000002 -0.043421 0.002443 0.002844 -0.000001 0.000000 -0.000003 -0.000001 0.000006 0.000001 0.000002 -0.000006 0.000004 -0.000001 0.000002 -0.000003 0.000000 0.000000 -0.000000 -1.451997 0.024904 -1.345612 -40.198505 1.005002 15.280366 51.395862 -0.342383 3.458543 0.000003 -0.000002 -0.000001 0.000000 0.000001 0.000001 0.000003 0.000001 -0.000000 -0.038000 -0.085200 0.016200 0.000001 -0.000004 0.000001 0.000000 0.000000 -0.000000 -1.420086 0.024487 -0.111419 13.421673 -0.593047 -7.219491 30.338259 0.262736 -2.651080 0.000003 0.000003 -0.000000 -0.000001 0.000000 -0.000001 0.000010 0.000004 0.000001 0.038000 -0.085200 0.016200 -0.000007 -0.000003 0.000003 
